# xmcd
#
# Track frame offsets: 
#        150
#        21501
#        40263
#        59825
#        77864
#        100005
#        120551
#        144727
#
# Disc length: 2169 seconds
#
# Revision: 1
# Processed by: cddbd v1.5.2PL0 Copyright (c) Steve Scherf et al.
# Submitted via: ExactAudioCopy v1.0b3
#
DISCID=70087708
DTITLE=Diana Ross - The Boss
DYEAR=1979
DGENRE=R&B
TTITLE0=No One Gets The Prize
TTITLE1=I Ain't Been Licked
TTITLE2=All For One
TTITLE3=The Boss
TTITLE4=Once In The Morning
TTITLE5=It's My House
TTITLE6=Sparkle
TTITLE7=I'm In The World
EXTD=
EXTT0=
EXTT1=
EXTT2=
EXTT3=
EXTT4=
EXTT5=
EXTT6=
EXTT7=
PLAYORDER=
